inDegrees=no
num_controls=7
num_derivatives=13
num_iterations=125
num_multipliers=7
num_parameters=0
num_slacks=7
num_states=26
objective=4.279723
objective_accelerations=0.484686
objective_balance=0.052511
objective_effort=0.597290
objective_height=3.073582
objective_ligament=0.071654
solver_duration=1276.450952
status=Solve_Succeeded
success=true
DataType=double
version=3
OpenSimVersion=4.4-2022-07-23-0e9fedc
endheader
time	/jointset/ground_pelvis/pelvis_tilt/value	/jointset/ground_pelvis/pelvis_tx/value	/jointset/ground_pelvis/pelvis_ty/value	/jointset/hip_l/hip_flexion_l/value	/jointset/hip_l/hip_adduction_l/value	/jointset/hip_l/hip_rotation_l/value	/jointset/back/lumbar_extension/value	/jointset/patellofemoral_l/patellar_flexion_l/value	/jointset/knee_l/knee_flexion_l/value	/jointset/knee_l/knee_adduction_l/value	/jointset/knee_l/knee_rotation_l/value	/jointset/ankle_l/ankle_angle_l/value	/jointset/subtalar_l/subtalar_angle_l/value	/jointset/ground_pelvis/pelvis_tilt/speed	/jointset/ground_pelvis/pelvis_tx/speed	/jointset/ground_pelvis/pelvis_ty/speed	/jointset/hip_l/hip_flexion_l/speed	/jointset/hip_l/hip_adduction_l/speed	/jointset/hip_l/hip_rotation_l/speed	/jointset/back/lumbar_extension/speed	/jointset/patellofemoral_l/patellar_flexion_l/speed	/jointset/knee_l/knee_flexion_l/speed	/jointset/knee_l/knee_adduction_l/speed	/jointset/knee_l/knee_rotation_l/speed	/jointset/ankle_l/ankle_angle_l/speed	/jointset/subtalar_l/subtalar_angle_l/speed	/forceset/tau_hip_flexion_l	/forceset/tau_hip_adduction_l	/forceset/tau_hip_rotation_l	/forceset/tau_knee_flexion_l	/forceset/tau_ankle_angle_l	/forceset/tau_subtalar_angle_l	/forceset/tau_lumbar_extension	lambda_cid13_p0	lambda_cid13_p1	lambda_cid13_p2	lambda_cid13_p3	lambda_cid13_p4	lambda_cid13_p5	lambda_cid14_p0	/jointset/ground_pelvis/pelvis_tilt/accel	/jointset/ground_pelvis/pelvis_tx/accel	/jointset/ground_pelvis/pelvis_ty/accel	/jointset/hip_l/hip_flexion_l/accel	/jointset/hip_l/hip_adduction_l/accel	/jointset/hip_l/hip_rotation_l/accel	/jointset/back/lumbar_extension/accel	/jointset/patellofemoral_l/patellar_flexion_l/accel	/jointset/knee_l/knee_flexion_l/accel	/jointset/knee_l/knee_adduction_l/accel	/jointset/knee_l/knee_rotation_l/accel	/jointset/ankle_l/ankle_angle_l/accel	/jointset/subtalar_l/subtalar_angle_l/accel	gamma_cid13_p0	gamma_cid13_p1	gamma_cid13_p2	gamma_cid13_p3	gamma_cid13_p4	gamma_cid13_p5	gamma_cid14_p0
0	-0.03682269733363543	0.0566775738738507	0.9203415935529776	0.3085811930696054	-0.2956404377893208	-0.3016072340787436	-0.3879500408040475	0.2499276582271268	0.249927658227084	-0.1745328565468334	-0.1745329138098574	-0.0008036543073733089	0.0004376428901168062	0	0	0	0	0	0	0	0	0	0	0	0	0	0.09298937915498375	-0.0655072800745521	-0.02308452473232269	-0.270421346594201	0.2330848129586647	-0.01797399260228646	-0.01542723951122962	32.52631545491921	-0.09157028777670809	2.076136809234954	-3.613838560443503	-605.4286087450755	-75.9378815243025	-23.19698951566436	-1.033995165491567	-2.051615501472945	-1.160271877467777	11.8249394504586	-0.8941465022851159	4.663821440769188	-7.882072398313809	13.46273960234558	13.46273960234475	2.483150343383808	-0.02613582592566084	3.657740740122648	0.2806812063528257	5.667008741357738e-09	4.493606473844946e-07	1.223864109811593e-07	-1.382874148153936e-09	2.362873495522093e-07	-9.871014881864179e-09	3.174336401744143e-08
0.01	-0.03686975451957612	0.05657725777564621	0.9202849877878002	0.3091565297674946	-0.2956851282129142	-0.3013734569963462	-0.3883411979960497	0.2505875613744545	0.2505875613743768	-0.1744133777747211	-0.1745295813003368	-0.0006234931458321915	0.0004507438152524072	-0.009361024512624556	-0.01985529583692898	-0.01127077274907423	0.1143581886067964	-0.008869084877558209	0.04641695176371101	-0.07747621445430533	0.1313281780691508	0.1313281780691537	0.02380560435966904	0.0005869159685754611	0.03599351503352043	0.002681909728535886	0.08554897552300386	-0.07284171444826611	-0.02224831263203515	-0.2653977068463518	0.226007798231231	-0.006614300792177272	-0.007999216773088643	30.51204409952421	-4.613830216261107	2.730207513295629	-4.687627774416675	-609.5176822204903	-84.77704925999261	-23.20432697553128	-0.8796116107720374	-1.921298330905759	-1.102875673257552	11.13487250697734	-0.8730377896774286	4.579868101305798	-7.567112376807331	12.8699828530378	12.86998285303894	2.315836304269246	0.08917172946112156	3.564361273782191	0.2711188754206935	-4.483578286196823e-08	4.021139222826625e-07	2.443600988491238e-07	5.317809250768443e-08	2.865020920986956e-09	-1.1350748121691e-07	1.731539463255012e-08
0.02	-0.03700891305397389	0.05628462637785189	0.9201171951552062	0.3108541711396867	-0.2958164591471212	-0.300685663184885	-0.3894844606141636	0.2525411714911529	0.2525411714911774	-0.1740585287945822	-0.1745227663465481	-8.455595619239724e-05	0.0004924984415366095	-0.01842026969018067	-0.03846305991796492	-0.02223737348335102	0.2244609348611012	-0.01732810212257495	0.09080334581273834	-0.15042108522134	0.2587413938918254	0.25874139389184	0.04707404159975857	0.0006964887856153209	0.07175520561965386	0.005730740229732315	0.07810857189102044	-0.08017614882197351	-0.02141210053099864	-0.2603740670986107	0.2189307835037893	0.004745391017926483	-0.0005711940349568734	28.60356498798634	-9.151990182724502	3.383817158770429	-5.979185852139636	-612.0668246896784	-93.47959077079744	-23.22588817930733	-0.9736392984778331	-1.802109150294381	-1.099437474508308	10.97385097996028	-0.8121329757770486	4.257709897831301	-6.975803660859605	12.67974715305057	12.67974715305149	2.375716919467622	-0.1216044562340661	3.61137585064517	0.354065360884684	-9.53385744652942e-08	3.548671971808305e-07	3.663337867170882e-07	1.077390591635228e-07	-2.305573077102353e-07	-2.171439475519559e-07	2.887425247658806e-09
0.03	-0.03723734796865801	0.05581117073622682	0.9198406788313708	0.3136336537674242	-0.2960303444497055	-0.2995640516967633	-0.3913370597248065	0.2557501815720222	0.2557501815720338	-0.1734740489099628	-0.1745172399070714	0.00080970950761644	0.0005661594723532754	-0.02720278797869259	-0.0561183421204803	-0.03306592073422484	0.330884392094725	-0.025391063099268	0.1333065765188141	-0.2196354534141659	0.3824602925244803	0.3824602925245409	0.06966074217146168	0.0004436518096396008	0.1069408228825848	0.009008447991737322	0.07117772379539448	-0.07315654526726657	-0.02045476943382245	-0.2541943111418787	0.212483780107179	0.002725994647099995	0.005352546333114311	26.4278210259635	-7.979362515849951	3.294361740323593	-5.219637618240434	-613.0760038485248	-90.09292572279863	-23.26064025325427	-0.820977924344065	-1.730757044109638	-1.074614822557294	10.39389852422641	-0.7948069416654294	4.214736145933573	-6.824760874373601	12.12791123590629	12.12791123591292	2.176069577192227	0.02815480337845448	3.448600233637579	0.3155727986697209	-1.326697029630834e-07	3.046573514674572e-07	4.993979989413966e-07	1.371286934110129e-07	-3.791816069200592e-07	-3.296980854628876e-07	-1.35428727737125e-08
0.04	-0.03755169203229542	0.05516445841480068	0.9194558667405902	0.3174608320533324	-0.2963231452186658	-0.2980237866037935	-0.393867904012556	0.260178370642719	0.2601783706427262	-0.1726685174293852	-0.1745131862128624	0.002051120257959105	0.0006727874437522098	-0.035602099479426	-0.07311439587817969	-0.0438965268724168	0.4340000664948744	-0.03311119539796034	0.1745340667823963	-0.2860701206421649	0.5025771918584688	0.5025771918585812	0.09128436078998402	0.0004019396999685171	0.1411842629263355	0.0123241283461927	0.0642468756997983	-0.06613694171256192	-0.01949743833659711	-0.2480145551851537	0.206036776710563	0.0007065982762684802	0.01127628670121795	24.34870898904416	-6.817895423643307	3.200108195793579	-4.669591528499557	-612.69082420787	-86.57460237655572	-23.30704325309162	-0.8969979409220562	-1.670263461331228	-1.099849251971944	10.31229441326542	-0.743567240176997	4.002561809332119	-6.419863467894153	11.95934729331741	11.95934729331944	2.183100528831367	-0.07937948297365255	3.422940406809058	0.3616598793746535	-1.697292507782843e-07	2.543864104837428e-07	6.326908817709906e-07	1.65999331114001e-07	-5.260574931521222e-07	-4.424360928908479e-07	-3.001445592160916e-08
0.05	-0.03794859654045483	0.05435149056433582	0.9189624391536165	0.3223028775580788	-0.2966912125108982	-0.296079123745621	-0.3970479555533243	0.2657900490768727	0.2657900490768707	-0.1716513413966681	-0.1745097745257791	0.003630732409009446	0.0008131686513686301	-0.04372129306293441	-0.08932788753929666	-0.05480988952354502	0.5338129375956797	-0.04042415244853004	0.2141201656319648	-0.3494010469323636	0.6191449214510464	0.6191449214510829	0.1119928931044052	0.0002799626794726933	0.1746185938567188	0.01579360237434959	0.05721828659701676	-0.06409249154086663	-0.01858457308814064	-0.2435022794493488	0.2004741758366791	0.00293198856314805	0.01749650896222715	22.69970611326059	-7.515634001245489	3.334168501406103	-4.864525471728453	-612.7543245858793	-86.97393920399037	-23.36311632099562	-0.7607596859615917	-1.574165584135202	-1.090321020253335	9.726350605057684	-0.7135806081917766	3.894800381179232	-6.208836122612788	11.41345590030904	11.41345590029632	1.991149674884969	0.02142786349175556	3.285745286202261	0.3457017810841193	-1.925345560228735e-07	1.299478185033799e-07	6.954474172460659e-07	1.77311477927028e-07	-6.25069286680548e-07	-5.147958989437893e-07	-4.844339073526691e-08
0.06	-0.03842496890823337	0.05338093308413309	0.9183592296904174	0.3281251652031498	-0.2971300935077749	-0.2937469666072718	-0.4008451421396014	0.2725489988285597	0.2725489988285666	-0.1704317960223809	-0.174507575673831	0.005541101039373817	0.0009894667225761624	-0.05149567140228067	-0.1046323218257563	-0.06585290211748633	0.6300484945592743	-0.04727393632689351	0.252032922817933	-0.4094971297437582	0.7320314553668699	0.7320314553668161	0.131758229104322	0.0001593726621491479	0.2073355587890725	0.01950750106442085	0.05018969749427659	-0.0620480413691726	-0.01767170783960385	-0.2389900037135363	0.1949115749627982	0.005157378850026549	0.02371673122326584	21.13582600707086	-8.226273844168713	3.467998203229186	-5.256946495701858	-611.5964733973068	-87.26324548156863	-23.42660868804341	-0.8280348920895679	-1.488451986399806	-1.125779240534568	9.59683158582324	-0.650932605735789	3.667893476611886	-5.7728947721333	11.22310815796665	11.22310815796578	1.994461265930452	-0.07910208233940377	3.279467207203082	0.410544811757471	-2.147396826329106e-07	2.386378060000267e-09	7.552340012535824e-07	1.878843198604777e-07	-7.220657499898732e-07	-5.85455570201993e-07	-6.695474035590406e-08
0.07000000000000001	-0.03897785110611219	0.05226175184075202	0.9176446212246518	0.3348931600923427	-0.2976350525033604	-0.2910446448557185	-0.4052270721470377	0.2804191924744415	0.2804191924744845	-0.1690191025216972	-0.1745072542903128	0.00777507270227779	0.001204247780063853	-0.05902469480174819	-0.1190630547861914	-0.07711182510354719	0.722983549152129	-0.05363560085019298	0.2881812138449061	-0.4663978184527044	0.8413990448921542	0.8413990448921415	0.1506033668502802	-6.040041003761731e-05	0.2393186894345966	0.02348744610646533	0.04320231586436289	-0.05877853898743104	-0.01675366385789069	-0.2349893888257964	0.1896616612280218	0.006144298436957199	0.02971575218036605	19.61062068284128	-8.41194745203436	3.52513502847487	-5.337834888861209	-610.4758980723693	-86.45053616718118	-23.49496404978032	-0.7069252243098135	-1.399215436315697	-1.132549526703571	9.056786022812171	-0.6165579389009356	3.550651222359032	-5.57499792660305	10.70236362688838	10.70236362689484	1.803054787030634	0.01191902957024498	3.136717702341011	0.3974439864141872	-2.310723587217517e-07	-1.557463994315265e-07	8.05048645087792e-07	1.85235272451038e-07	-7.788464544672284e-07	-6.531720104100444e-07	-8.858229993284327e-08
